<svg width="119" height="89" viewBox="0 0 119 89" fill="none" xmlns="http://www.w3.org/2000/svg">
<path d="M115 88.6101V3.65892V2.65358C109 1.61011 106.928 6.09884 103.5 9.62928C100 13.6283 95 22.6261 81.552 22.2577C79.5 21.6264 74.9638 20.247 66.8552 18.739C54 16.6101 45.5407 39.5887 42.5 43.6101C39.4593 47.6314 35.0727 48.6198 33.5455 48.6198C32.0182 48.6198 27.4271 47.62 25.4 47.62C14.048 47.2179 5.70287 56.7743 3 61.4659V88.6101H115Z" fill="url(#paint0_linear_419_35730)"/>
<path d="M2.67991 64.3776L6.26781 62.4299L4.32009 58.842L0.732188 60.7897L2.67991 64.3776ZM25 47.1098V46.6098H24.9857L24.9715 46.6106L25 47.1098ZM46.5 37.6098L46.076 37.3448L46.0717 37.3517L46.0676 37.3587L46.5 37.6098ZM69.5 19.1098L69.337 19.5825L69.4162 19.6098H69.5V19.1098ZM100 13.1098L99.6046 12.8037L100 13.1098ZM115.5 3.10976L115.748 2.67564L115.719 2.65914L115.688 2.64661L115.5 3.10976ZM119.006 1.6775L115.068 0.603345L113.994 4.54198L117.932 5.61614L119.006 1.6775ZM3.9794 61.7518C5.26195 57.4232 11.2695 48.3952 25.0285 47.609L24.9715 46.6106C10.7305 47.4244 4.40472 56.7964 3.0206 61.4678L3.9794 61.7518ZM25 47.6098C26.3092 47.6098 27.7042 47.9666 29.3141 48.295C30.8951 48.6175 32.6331 48.8977 34.4984 48.6686C38.2795 48.2042 42.3925 45.6796 46.9324 37.8609L46.0676 37.3587C41.6075 45.04 37.7205 47.2654 34.3766 47.676C32.6794 47.8844 31.0737 47.6333 29.514 47.3152C27.9833 47.003 26.4408 46.6098 25 46.6098V47.6098ZM46.924 37.8748C47.2542 37.3465 47.6333 36.5781 48.0627 35.6764C48.4973 34.7641 48.9895 33.702 49.5578 32.5497C50.6934 30.2474 52.1141 27.6249 53.8975 25.2881C55.6823 22.9494 57.809 20.9253 60.3457 19.7846C62.8669 18.6508 65.8288 18.3728 69.337 19.5825L69.663 18.6371C65.9212 17.3468 62.6956 17.6313 59.9356 18.8725C57.191 20.1068 54.9427 22.2702 53.1025 24.6815C51.2609 27.0947 49.8066 29.7847 48.661 32.1074C48.0887 33.2676 47.5887 34.3462 47.1599 35.2464C46.7261 36.1571 46.3708 36.8731 46.076 37.3448L46.924 37.8748ZM69.5 19.6098C69.8542 19.6098 70.4046 19.7352 71.1802 19.9668C71.9507 20.1969 72.8416 20.4985 73.9063 20.8294C76.0041 21.4816 78.6244 22.1978 81.5242 22.4208C87.3569 22.8695 94.2793 21.3158 100.395 13.4159L99.6046 12.8037C93.7207 20.4038 87.1431 21.8501 81.6008 21.4238C78.8131 21.2093 76.2772 20.5193 74.2031 19.8745C73.1819 19.5571 72.2329 19.2375 71.4663 19.0086C70.7048 18.7812 70.0208 18.6098 69.5 18.6098V19.6098ZM100.395 13.4159C105.158 7.26377 108.961 4.83886 111.517 3.93094C112.795 3.47733 113.768 3.39966 114.406 3.42802C114.726 3.44223 114.964 3.48318 115.116 3.51814C115.192 3.53563 115.246 3.55165 115.279 3.56213C115.296 3.56737 115.307 3.57123 115.312 3.57319C115.315 3.57418 115.316 3.57469 115.316 3.57466C115.316 3.57465 115.316 3.5745 115.315 3.57421C115.314 3.57407 115.314 3.57389 115.313 3.57367C115.313 3.57356 115.313 3.57337 115.313 3.57332C115.312 3.57312 115.312 3.57291 115.5 3.10976C115.688 2.64661 115.688 2.64638 115.687 2.64615C115.687 2.64606 115.686 2.64581 115.686 2.64563C115.685 2.64527 115.684 2.64488 115.683 2.64445C115.681 2.64359 115.678 2.64259 115.675 2.64147C115.67 2.63923 115.662 2.63649 115.654 2.63331C115.636 2.62695 115.613 2.61885 115.584 2.60954C115.525 2.59092 115.444 2.56748 115.34 2.54357C115.132 2.49571 114.834 2.44604 114.45 2.42901C113.682 2.39487 112.58 2.4922 111.183 2.9886C108.389 3.98069 104.442 6.55579 99.6046 12.8037L100.395 13.4159ZM115.252 3.54388C115.343 3.59588 115.323 3.61141 115.302 3.5595C115.274 3.49297 115.289 3.43176 115.299 3.41083C115.303 3.40122 115.297 3.41716 115.262 3.44811C115.229 3.47693 115.193 3.49852 115.173 3.50804C115.162 3.51352 115.17 3.50812 115.195 3.50227C115.207 3.49951 115.24 3.49255 115.286 3.49325C115.323 3.49379 115.434 3.49928 115.549 3.58019C115.697 3.68429 115.758 3.84699 115.754 3.98928C115.751 4.10012 115.711 4.17584 115.698 4.19751C115.671 4.24638 115.647 4.2634 115.671 4.2411C115.756 4.16009 116.047 3.94431 116.748 3.54386L116.252 2.67562C115.895 2.87945 115.625 3.04606 115.423 3.18066C115.226 3.3123 115.08 3.42305 114.982 3.5159C114.939 3.55715 114.874 3.62338 114.826 3.70852C114.804 3.74832 114.758 3.83893 114.755 3.9616C114.753 4.02883 114.764 4.11133 114.804 4.19592C114.844 4.2823 114.905 4.34959 114.972 4.39713C115.095 4.4839 115.219 4.49235 115.271 4.49313C115.333 4.49407 115.385 4.48462 115.419 4.47682C115.489 4.46088 115.552 4.43516 115.602 4.41147C115.705 4.36266 115.818 4.2905 115.92 4.2011C116.02 4.11382 116.136 3.98705 116.211 3.82119C116.29 3.64401 116.324 3.41302 116.224 3.17409C116.131 2.94978 115.949 2.79031 115.748 2.67564L115.252 3.54388Z" fill="#2A85FF"/>
<defs>
<linearGradient id="paint0_linear_419_35730" x1="59" y1="2.63097" x2="59" y2="88.6101" gradientUnits="userSpaceOnUse">
<stop stop-color="#2A85FF"/>
<stop offset="1" stop-color="white" stop-opacity="0"/>
</linearGradient>
</defs>
</svg>
