<svg width="134" height="94" viewBox="0 0 134 94" fill="none" xmlns="http://www.w3.org/2000/svg">
<path d="M123 88.6101V3.65892V2.65358C117 1.61011 114.928 6.09884 111.5 9.62928C108 13.6283 103 22.6261 89.552 22.2577C87.5 21.6264 82.9638 20.247 74.8552 18.739C62 16.6101 53.5407 39.5887 50.5 43.6101C47.4593 47.6314 43.0727 48.6198 41.5455 48.6198C40.0182 48.6198 35.4271 47.62 33.4 47.62C22.048 47.2179 13.7029 56.7743 11 61.4659V88.6101H123Z" fill="url(#paint0_linear_419_35743)"/>
<path d="M10.6799 64.3776L14.2678 62.4299L12.3201 58.842L8.73219 60.7897L10.6799 64.3776ZM33 47.1098V46.6098H32.9857L32.9715 46.6106L33 47.1098ZM54.5 37.6098L54.076 37.3448L54.0717 37.3517L54.0676 37.3587L54.5 37.6098ZM77.5 19.1098L77.337 19.5825L77.4162 19.6098H77.5V19.1098ZM108 13.1098L107.605 12.8037L108 13.1098ZM123.5 3.10976L123.748 2.67564L123.719 2.65914L123.688 2.64661L123.5 3.10976ZM127.006 1.6775L123.068 0.603345L121.994 4.54198L125.932 5.61614L127.006 1.6775ZM11.9794 61.7518C13.2619 57.4232 19.2695 48.3952 33.0285 47.609L32.9715 46.6106C18.7305 47.4244 12.4047 56.7964 11.0206 61.4678L11.9794 61.7518ZM33 47.6098C34.3092 47.6098 35.7042 47.9666 37.3141 48.295C38.8951 48.6175 40.6331 48.8977 42.4984 48.6686C46.2795 48.2042 50.3925 45.6796 54.9324 37.8609L54.0676 37.3587C49.6075 45.04 45.7205 47.2654 42.3766 47.676C40.6794 47.8844 39.0737 47.6333 37.514 47.3152C35.9833 47.003 34.4408 46.6098 33 46.6098V47.6098ZM54.924 37.8748C55.2542 37.3465 55.6333 36.5781 56.0627 35.6764C56.4973 34.7641 56.9895 33.702 57.5578 32.5497C58.6934 30.2474 60.1141 27.6249 61.8975 25.2881C63.6823 22.9494 65.809 20.9253 68.3457 19.7846C70.8669 18.6508 73.8288 18.3728 77.337 19.5825L77.663 18.6371C73.9212 17.3468 70.6956 17.6313 67.9356 18.8725C65.191 20.1068 62.9427 22.2702 61.1025 24.6815C59.2609 27.0947 57.8066 29.7847 56.661 32.1074C56.0887 33.2676 55.5887 34.3462 55.1599 35.2464C54.7261 36.1571 54.3708 36.8731 54.076 37.3448L54.924 37.8748ZM77.5 19.6098C77.8542 19.6098 78.4046 19.7352 79.1802 19.9668C79.9507 20.1969 80.8416 20.4985 81.9063 20.8294C84.0041 21.4816 86.6244 22.1978 89.5242 22.4208C95.3569 22.8695 102.279 21.3158 108.395 13.4159L107.605 12.8037C101.721 20.4038 95.1431 21.8501 89.6008 21.4238C86.8131 21.2093 84.2772 20.5193 82.2031 19.8745C81.1819 19.5571 80.2329 19.2375 79.4663 19.0086C78.7048 18.7812 78.0208 18.6098 77.5 18.6098V19.6098ZM108.395 13.4159C113.158 7.26377 116.961 4.83886 119.517 3.93094C120.795 3.47733 121.768 3.39966 122.406 3.42802C122.726 3.44223 122.964 3.48318 123.116 3.51814C123.192 3.53563 123.246 3.55165 123.279 3.56213C123.296 3.56737 123.307 3.57123 123.312 3.57319C123.315 3.57418 123.316 3.57469 123.316 3.57466C123.316 3.57465 123.316 3.5745 123.315 3.57421C123.314 3.57407 123.314 3.57389 123.313 3.57367C123.313 3.57356 123.313 3.57337 123.313 3.57332C123.312 3.57312 123.312 3.57291 123.5 3.10976C123.688 2.64661 123.688 2.64638 123.687 2.64615C123.687 2.64606 123.686 2.64581 123.686 2.64563C123.685 2.64527 123.684 2.64488 123.683 2.64445C123.681 2.64359 123.678 2.64259 123.675 2.64147C123.67 2.63923 123.662 2.63649 123.654 2.63331C123.636 2.62695 123.613 2.61885 123.584 2.60954C123.525 2.59092 123.444 2.56748 123.34 2.54357C123.132 2.49571 122.834 2.44604 122.45 2.42901C121.682 2.39487 120.58 2.4922 119.183 2.9886C116.389 3.98069 112.442 6.55579 107.605 12.8037L108.395 13.4159ZM123.252 3.54388C123.343 3.59588 123.323 3.61141 123.302 3.5595C123.274 3.49297 123.289 3.43176 123.299 3.41083C123.303 3.40122 123.297 3.41716 123.262 3.44811C123.229 3.47693 123.193 3.49852 123.173 3.50804C123.162 3.51352 123.17 3.50812 123.195 3.50227C123.207 3.49951 123.24 3.49255 123.286 3.49325C123.323 3.49379 123.434 3.49928 123.549 3.58019C123.697 3.68429 123.758 3.84699 123.754 3.98928C123.751 4.10012 123.711 4.17584 123.698 4.19751C123.671 4.24638 123.647 4.2634 123.671 4.2411C123.756 4.16009 124.047 3.94431 124.748 3.54386L124.252 2.67562C123.895 2.87945 123.625 3.04606 123.423 3.18066C123.226 3.3123 123.08 3.42305 122.982 3.5159C122.939 3.55715 122.874 3.62338 122.826 3.70852C122.804 3.74832 122.758 3.83893 122.755 3.9616C122.753 4.02883 122.764 4.11133 122.804 4.19592C122.844 4.2823 122.905 4.34959 122.972 4.39713C123.095 4.4839 123.219 4.49235 123.271 4.49313C123.333 4.49407 123.385 4.48462 123.419 4.47682C123.489 4.46088 123.552 4.43516 123.602 4.41147C123.705 4.36266 123.818 4.2905 123.92 4.2011C124.02 4.11382 124.136 3.98705 124.211 3.82119C124.29 3.64401 124.324 3.41302 124.224 3.17409C124.131 2.94978 123.949 2.79031 123.748 2.67564L123.252 3.54388Z" fill="#24BC73"/>
<mask id="mask0_419_35743" style="mask-type:alpha" maskUnits="userSpaceOnUse" x="0" y="85" width="134" height="9">
<rect y="85.5" width="134" height="8" fill="#D9D9D9"/>
</mask>
<g mask="url(#mask0_419_35743)">
<path d="M-14 89.6104L292 89.6104" stroke="url(#paint1_linear_419_35743)" stroke-width="2"/>
</g>
<defs>
<linearGradient id="paint0_linear_419_35743" x1="67" y1="2.63097" x2="67" y2="88.6101" gradientUnits="userSpaceOnUse">
<stop stop-color="#24BC73"/>
<stop offset="1" stop-color="white" stop-opacity="0"/>
</linearGradient>
<linearGradient id="paint1_linear_419_35743" x1="-1.45902" y1="89.6108" x2="138.964" y2="92.4061" gradientUnits="userSpaceOnUse">
<stop stop-color="white"/>
<stop offset="1" stop-color="#898E95" stop-opacity="0"/>
</linearGradient>
</defs>
</svg>
